<svg width="355" height="73" viewBox="0 0 355 73" fill="none" xmlns="http://www.w3.org/2000/svg">
<path fill-rule="evenodd" clip-rule="evenodd" d="M0.833008 4.16499V7.66299L8.04201 7.70699L15.25 7.74999L15.292 30.045L15.335 52.339L19.292 52.295L23.25 52.25L23.292 29.958L23.335 7.66699H30.501H37.667V4.16699V0.666992H19.25H0.833008V4.16499ZM41.833 26.503V52.339L45.708 52.295L49.583 52.25L49.676 39.333C49.739 30.582 49.829 26.229 49.954 25.833C50.056 25.512 50.21 25.023 50.297 24.745C51.347 21.398 54.35 19.658 59.053 19.673C62.543 19.683 64.562 20.438 65.846 22.211C66.947 23.73 66.906 23.158 66.999 38.417L67.083 52.25L70.958 52.295L74.833 52.339V38.045C74.833 21.221 74.769 20.549 72.867 17.418C68.995 11.045 56.524 10.054 50.812 15.665L49.667 16.79V8.72799V0.666992H45.75H41.833V26.503ZM92.917 12.162C84.63 12.885 80.262 16.91 78.805 25.167C78.445 27.204 78.51 38.773 78.892 40.833C80.278 48.307 84.595 51.974 93.128 52.926C98.149 53.487 104.127 52.945 108.314 51.549C110.372 50.863 110.167 51.367 110.167 47.006V43.19L109.172 43.594C103.664 45.832 93.555 46.109 89.791 44.125C87.403 42.866 86.234 40.406 86.366 36.917L86.417 35.583L98.611 35.541L110.806 35.498L110.996 34.624C111.53 32.162 111.617 26.594 111.16 24.083C109.594 15.475 103.158 11.269 92.917 12.162ZM98.762 19.503C102.472 20.452 104.145 22.866 104.161 27.292L104.167 29H95.228H86.289L86.373 26.875C86.544 22.548 88.095 20.441 91.851 19.43C93.282 19.046 97.132 19.086 98.762 19.503Z" fill="#040404"/>
<path fill-rule="evenodd" clip-rule="evenodd" d="M204.825 0.165962C199.708 0.978962 197.741 4.02996 194.666 15.917C194.406 16.925 194.042 18.313 193.859 19C193.088 21.888 192.431 24.377 191.921 26.333C191.622 27.479 191.061 29.617 190.672 31.083C189.983 33.687 189.482 35.591 188.282 40.167C187.957 41.404 187.542 42.979 187.359 43.667C187.175 44.354 186.79 45.817 186.502 46.917C186.214 48.017 185.796 49.61 185.572 50.458C185.349 51.305 185.167 52.074 185.167 52.166C185.167 52.392 192.942 52.395 193.082 52.169C193.138 52.078 193.296 51.572 193.433 51.044C194.385 47.366 195.081 44.696 195.442 43.333C195.672 42.462 196.041 41.045 196.261 40.183C196.48 39.321 196.704 38.477 196.758 38.308C196.852 38.013 197.299 38 207.56 38H218.264L219.13 41.375C220.367 46.195 221.476 50.442 221.762 51.458L222.009 52.333H226.016C229.752 52.333 230.017 52.314 229.939 52.042C229.801 51.558 229.213 49.355 228.748 47.583C228.508 46.667 228.172 45.392 228.002 44.75C226.985 40.917 226.763 40.076 226.332 38.417C226.069 37.408 225.597 35.608 225.281 34.417C224.966 33.225 224.127 30.037 223.418 27.333C222.709 24.629 221.809 21.217 221.418 19.75C221.027 18.283 220.353 15.738 219.92 14.094C217.401 4.53196 215.534 1.53596 211.388 0.403961C210.247 0.0919614 206.211 -0.0540375 204.825 0.165962ZM116.042 23.458C116.087 43.602 116.123 46.347 116.354 47.083C117.188 49.741 118.734 51.246 121.348 51.943C122.298 52.196 123.752 52.235 134.458 52.29L146.5 52.351V48.431V44.51L136.208 44.463C124.869 44.412 125.207 44.443 124.417 43.369C124.088 42.923 124.083 42.62 124.04 21.792L123.996 0.666962H119.994H115.992L116.042 23.458ZM156.5 0.855965C152.956 1.43496 151.115 3.13596 150.421 6.46896C150.102 7.99996 150.033 44.663 150.346 46.2C151.011 49.462 152.728 51.306 155.775 52.029C156.337 52.162 160.71 52.24 170.125 52.285L183.667 52.35V48.43V44.511L171.792 44.464C158.508 44.411 159.264 44.482 158.474 43.212L158.083 42.583V36.083V29.583L169.375 29.541L180.667 29.498V25.667V21.836L169.375 21.793L158.083 21.75V16.083C158.083 9.60096 158.085 9.59096 159.497 8.87496L160.237 8.49996H171.952H183.667V4.58296V0.666962L170.542 0.685959C163.323 0.696959 157.004 0.772965 156.5 0.855965ZM239.704 0.857964C236.601 1.30296 234.69 2.91596 233.809 5.83296L233.431 7.08296L233.375 25.25C233.308 46.614 233.321 46.86 234.703 49.161C236.31 51.837 238.755 52.449 247.165 52.282C262.793 51.971 268.607 48.141 270.36 37C270.728 34.664 270.676 17.452 270.295 15.25C268.626 5.61796 264.175 1.92697 253 0.910965C250.118 0.648965 241.403 0.613964 239.704 0.857964ZM282.565 0.911965C279.214 1.51996 277.345 3.40896 276.741 6.79796C276.442 8.47296 276.389 44.059 276.683 45.82C277.269 49.331 278.717 51.048 281.833 51.929C282.836 52.212 283.93 52.239 296.458 52.292L310 52.35V48.425V44.5L298.542 44.499C286.59 44.498 286.123 44.472 285.354 43.776C284.524 43.025 284.5 42.801 284.5 35.922V29.5H295.75H307V25.667V21.833H295.75H284.5V16.15C284.5 9.78896 284.521 9.65896 285.643 8.96096L286.25 8.58296L298.125 8.53696L310 8.49096V4.57896V0.666962L296.875 0.681961C286.932 0.692961 283.463 0.748965 282.565 0.911965ZM321.833 0.847962C318.287 1.45596 316.446 3.14296 315.752 6.41996C315.542 7.41296 315.505 10.854 315.503 29.958L315.5 52.333H319.417H323.333V42.417V32.5L328.292 32.504L333.25 32.509L335.583 36.359C336.867 38.476 338.337 40.893 338.85 41.729C340.375 44.213 343.308 49.005 345.112 51.958C345.353 52.352 354.333 52.575 354.333 52.187C354.333 52.106 351.558 47.56 348.167 42.083C341.242 30.902 341.768 31.906 342.708 31.663C349.302 29.959 352.5 25.033 352.5 16.579C352.5 7.49796 348.859 2.58596 341 1.06596C339.343 0.745964 323.484 0.565962 321.833 0.847962ZM209.264 7.76796C210.272 8.24596 210.898 9.54096 211.825 13.068C212.808 16.805 213.322 18.785 214.253 22.417C214.771 24.433 215.403 26.871 215.66 27.833C215.916 28.796 216.174 29.79 216.233 30.042L216.34 30.5H207.587C200.532 30.5 198.833 30.458 198.833 30.284C198.833 30.165 199.017 29.359 199.242 28.492C199.466 27.626 200.029 25.454 200.493 23.667C200.957 21.879 201.789 18.654 202.343 16.5C204.305 8.87496 204.64 8.13096 206.357 7.57296C207.22 7.29196 208.434 7.37396 209.264 7.76796ZM251.917 8.66996C258.281 9.26096 260.984 11.321 262.128 16.453C262.626 18.691 262.551 34.854 262.033 36.904C260.589 42.608 257.611 44.218 248.083 44.447C243.024 44.568 242.201 44.37 241.579 42.881C241.224 42.032 241.208 10.95 241.562 10.12C241.847 9.44996 242.476 8.85996 243.103 8.67196C243.783 8.46896 249.73 8.46796 251.917 8.66996ZM338.529 8.66696C342.932 9.30396 344.408 11.291 344.408 16.583C344.408 21.359 343.423 23.061 340 24.208C338.96 24.557 338.603 24.573 331.118 24.629L323.32 24.688L323.368 17.552C323.435 7.68896 322.708 8.49796 331.494 8.50296C334.751 8.50496 337.917 8.57896 338.529 8.66696Z" fill="#C4141C"/>
<path d="M18.1458 71.1232H16.4902L16.501 70.2591H18.1458C18.7122 70.2591 19.1842 70.1399 19.5618 69.9014C19.9394 69.6592 20.2226 69.3216 20.4114 68.8887C20.6038 68.452 20.7 67.942 20.7 67.3586V66.8688C20.7 66.4101 20.6455 66.0028 20.5366 65.6469C20.4277 65.2873 20.2679 64.9846 20.0574 64.7388C19.8468 64.4893 19.589 64.3003 19.284 64.1719C18.9827 64.0435 18.6359 63.9793 18.2438 63.9793H16.4575V63.1097H18.2438C18.763 63.1097 19.2368 63.1977 19.6652 63.3738C20.0937 63.5463 20.4622 63.7976 20.7708 64.1279C21.083 64.4544 21.3227 64.8507 21.4897 65.3167C21.6567 65.779 21.7402 66.3 21.7402 66.8798V67.3586C21.7402 67.9383 21.6567 68.4612 21.4897 68.9272C21.3227 69.3895 21.0812 69.7839 20.7653 70.1105C20.4531 70.4371 20.0755 70.6884 19.6326 70.8645C19.1932 71.037 18.6976 71.1232 18.1458 71.1232ZM17.0511 63.1097V71.1232H16V63.1097H17.0511Z" fill="#C4141C"/>
<path d="M30.2662 63.1097V71.1232H29.2151V63.1097H30.2662Z" fill="#C4141C"/>
<path d="M43.0347 70.2591V71.1232H38.8358V70.2591H43.0347ZM39.0482 63.1097V71.1232H37.9971V63.1097H39.0482ZM42.4792 66.555V67.4191H38.8358V66.555H42.4792ZM42.9803 63.1097V63.9793H38.8358V63.1097H42.9803ZM40.7964 61.387L42.4411 62.7299H41.5098L40.4369 61.8603L39.3695 62.7299H38.4437L40.083 61.387H40.7964ZM41.439 60L41.8584 60.1211C41.8584 60.2679 41.8184 60.4073 41.7386 60.5394C41.6623 60.6715 41.5588 60.7797 41.4281 60.8641C41.2974 60.9448 41.1504 60.9852 40.987 60.9852C40.8055 60.9852 40.6602 60.9522 40.5513 60.8861C40.4424 60.8201 40.3389 60.754 40.2409 60.688C40.1465 60.6219 40.0249 60.5889 39.876 60.5889C39.7634 60.5889 39.66 60.6329 39.5656 60.721C39.4712 60.8054 39.424 60.899 39.424 61.0017L39.0046 60.8971C39.0046 60.7504 39.0427 60.6109 39.119 60.4788C39.1989 60.3431 39.3042 60.233 39.4349 60.1486C39.5692 60.0605 39.7162 60.0165 39.876 60.0165C40.0285 60.0165 40.161 60.0495 40.2736 60.1156C40.3861 60.178 40.4969 60.2422 40.6058 60.3082C40.7183 60.3706 40.8454 60.4018 40.987 60.4018C41.0996 60.4018 41.203 60.3614 41.2974 60.2807C41.3918 60.1963 41.439 60.1027 41.439 60Z" fill="#C4141C"/>
<path d="M56.2553 63.1097V71.1232H55.1988L51.2068 64.9424V71.1232H50.1557V63.1097H51.2068L55.2151 69.3069V63.1097H56.2553Z" fill="#C4141C"/>
<path d="M74.8322 71.1232H73.1766L73.1875 70.2591H74.8322C75.3986 70.2591 75.8706 70.1399 76.2482 69.9014C76.6258 69.6592 76.909 69.3216 77.0978 68.8887C77.2902 68.452 77.3865 67.942 77.3865 67.3586V66.8688C77.3865 66.4101 77.332 66.0028 77.2231 65.6469C77.1142 65.2873 76.9544 64.9846 76.7438 64.7388C76.5332 64.4893 76.2755 64.3003 75.9705 64.1719C75.6691 64.0435 75.3224 63.9793 74.9303 63.9793H73.1439V63.1097H74.9303C75.4495 63.1097 75.9233 63.1977 76.3517 63.3738C76.7801 63.5463 77.1486 63.7976 77.4573 64.1279C77.7695 64.4544 78.0091 64.8507 78.1761 65.3167C78.3432 65.779 78.4267 66.3 78.4267 66.8798V67.3586C78.4267 67.9383 78.3432 68.4612 78.1761 68.9272C78.0091 69.3895 77.7677 69.7839 77.4518 70.1105C77.1396 70.4371 76.762 70.6884 76.319 70.8645C75.8797 71.037 75.3841 71.1232 74.8322 71.1232ZM73.7376 63.1097V71.1232H72.6865V63.1097H73.7376ZM75.2734 66.6266V67.4632H71.8042V66.6266H75.2734Z" fill="#C4141C"/>
<path d="M88.641 63.8196L86.0159 71.1232H84.9431L87.9657 63.1097H88.6573L88.641 63.8196ZM90.8412 71.1232L88.2107 63.8196L88.1944 63.1097H88.886L91.9195 71.1232H90.8412ZM90.705 68.1566V69.0262H86.2501V68.1566H90.705ZM87.9657 60.9577L89.0168 62.5758H88.1508L86.7457 60.9577H87.9657Z" fill="#C4141C"/>
<path d="M104.9 63.1097V71.1232H103.844L99.8519 64.9424V71.1232H98.8008V63.1097H99.8519L103.86 69.3069V63.1097H104.9Z" fill="#C4141C"/>
<path d="M125.955 68.5749H127.001C126.947 69.0813 126.803 69.5344 126.571 69.9344C126.338 70.3343 126.01 70.6517 125.585 70.8865C125.16 71.1177 124.63 71.2333 123.995 71.2333C123.53 71.2333 123.107 71.1452 122.726 70.9691C122.348 70.793 122.023 70.5435 121.751 70.2206C121.479 69.894 121.268 69.5032 121.119 69.0483C120.974 68.5896 120.901 68.0796 120.901 67.5182V66.7202C120.901 66.1588 120.974 65.6506 121.119 65.1956C121.268 64.7369 121.48 64.3443 121.756 64.0178C122.036 63.6912 122.372 63.4399 122.764 63.2638C123.156 63.0876 123.597 62.9996 124.087 62.9996C124.686 62.9996 125.193 63.1133 125.607 63.3408C126.021 63.5683 126.342 63.8839 126.571 64.2875C126.803 64.6874 126.947 65.1516 127.001 65.6799H125.955C125.905 65.3057 125.81 64.9846 125.672 64.7168C125.534 64.4452 125.338 64.2361 125.084 64.0893C124.83 63.9426 124.498 63.8692 124.087 63.8692C123.735 63.8692 123.425 63.9371 123.156 64.0728C122.891 64.2086 122.668 64.4012 122.486 64.6507C122.308 64.9002 122.174 65.1993 122.083 65.5478C121.992 65.8964 121.947 66.2835 121.947 66.7091V67.5182C121.947 67.9108 121.987 68.2796 122.067 68.6245C122.15 68.9694 122.276 69.2721 122.443 69.5326C122.61 69.7931 122.822 69.9986 123.08 70.149C123.338 70.2958 123.643 70.3692 123.995 70.3692C124.441 70.3692 124.797 70.2976 125.062 70.1545C125.327 70.0114 125.527 69.806 125.661 69.5381C125.799 69.2703 125.897 68.9492 125.955 68.5749Z" fill="#C4141C"/>
<path d="M138.789 63.1097H139.835V68.5309C139.835 69.1327 139.702 69.6335 139.437 70.0334C139.172 70.4334 138.82 70.7343 138.381 70.9361C137.945 71.1342 137.471 71.2333 136.959 71.2333C136.422 71.2333 135.935 71.1342 135.5 70.9361C135.068 70.7343 134.725 70.4334 134.47 70.0334C134.22 69.6335 134.095 69.1327 134.095 68.5309V63.1097H135.135V68.5309C135.135 68.9492 135.211 69.2941 135.364 69.5656C135.516 69.8371 135.729 70.039 136.001 70.171C136.277 70.3031 136.596 70.3692 136.959 70.3692C137.326 70.3692 137.646 70.3031 137.918 70.171C138.194 70.039 138.408 69.8371 138.561 69.5656C138.713 69.2941 138.789 68.9492 138.789 68.5309V63.1097ZM137.346 62.4877H136.622L136.616 61.6511C136.801 61.6401 136.952 61.6218 137.068 61.5961C137.184 61.5668 137.27 61.5246 137.324 61.4695C137.379 61.4108 137.406 61.3338 137.406 61.2384C137.406 61.1613 137.382 61.0971 137.335 61.0457C137.288 60.9907 137.223 60.9467 137.139 60.9136C137.056 60.8769 136.959 60.8513 136.85 60.8366C136.742 60.8219 136.625 60.8146 136.502 60.8146L136.54 60.2312C136.809 60.2312 137.045 60.255 137.248 60.3027C137.455 60.3504 137.627 60.4201 137.765 60.5119C137.907 60.6036 138.012 60.7137 138.081 60.8421C138.154 60.9668 138.19 61.1063 138.19 61.2604C138.19 61.5392 138.103 61.7429 137.929 61.8713C137.754 61.996 137.562 62.0731 137.351 62.1025L137.346 62.4877Z" fill="#C4141C"/>
<path d="M150.12 63.8196L147.495 71.1232H146.422L149.445 63.1097H150.136L150.12 63.8196ZM152.32 71.1232L149.69 63.8196L149.673 63.1097H150.365L153.399 71.1232H152.32ZM152.184 68.1566V69.0262H147.729V68.1566H152.184Z" fill="#C4141C"/>
<path d="M173.653 68.5749H174.699C174.644 69.0813 174.501 69.5344 174.268 69.9344C174.036 70.3343 173.707 70.6517 173.283 70.8865C172.858 71.1177 172.328 71.2333 171.692 71.2333C171.228 71.2333 170.805 71.1452 170.423 70.9691C170.046 70.793 169.721 70.5435 169.449 70.2206C169.176 69.894 168.966 69.5032 168.817 69.0483C168.672 68.5896 168.599 68.0796 168.599 67.5182V66.7202C168.599 66.1588 168.672 65.6506 168.817 65.1956C168.966 64.7369 169.178 64.3443 169.454 64.0178C169.734 63.6912 170.069 63.4399 170.461 63.2638C170.854 63.0876 171.295 62.9996 171.785 62.9996C172.384 62.9996 172.89 63.1133 173.304 63.3408C173.718 63.5683 174.04 63.8839 174.268 64.2875C174.501 64.6874 174.644 65.1516 174.699 65.6799H173.653C173.602 65.3057 173.508 64.9846 173.37 64.7168C173.232 64.4452 173.036 64.2361 172.782 64.0893C172.527 63.9426 172.195 63.8692 171.785 63.8692C171.433 63.8692 171.122 63.9371 170.854 64.0728C170.589 64.2086 170.365 64.4012 170.184 64.6507C170.006 64.9002 169.871 65.1993 169.781 65.5478C169.69 65.8964 169.645 66.2835 169.645 66.7091V67.5182C169.645 67.9108 169.685 68.2796 169.764 68.6245C169.848 68.9694 169.973 69.2721 170.14 69.5326C170.307 69.7931 170.52 69.9986 170.777 70.149C171.035 70.2958 171.34 70.3692 171.692 70.3692C172.139 70.3692 172.495 70.2976 172.76 70.1545C173.025 70.0114 173.224 69.806 173.359 69.5381C173.497 69.2703 173.595 68.9492 173.653 68.5749Z" fill="#C4141C"/>
<path d="M184.886 63.8196L182.261 71.1232H181.188L184.21 63.1097H184.902L184.886 63.8196ZM187.086 71.1232L184.455 63.8196L184.439 63.1097H185.131L188.164 71.1232H187.086ZM186.95 68.1566V69.0262H182.495V68.1566H186.95ZM184.134 62.5758L185.191 60.9577H186.405L184.946 62.5758H184.134Z" fill="#C4141C"/>
<path d="M199.767 68.5749H200.813C200.758 69.0813 200.615 69.5344 200.383 69.9344C200.15 70.3343 199.822 70.6517 199.397 70.8865C198.972 71.1177 198.442 71.2333 197.807 71.2333C197.342 71.2333 196.919 71.1452 196.538 70.9691C196.16 70.793 195.835 70.5435 195.563 70.2206C195.291 69.894 195.08 69.5032 194.931 69.0483C194.786 68.5896 194.713 68.0796 194.713 67.5182V66.7202C194.713 66.1588 194.786 65.6506 194.931 65.1956C195.08 64.7369 195.292 64.3443 195.568 64.0178C195.848 63.6912 196.184 63.4399 196.576 63.2638C196.968 63.0876 197.409 62.9996 197.899 62.9996C198.498 62.9996 199.005 63.1133 199.419 63.3408C199.833 63.5683 200.154 63.8839 200.383 64.2875C200.615 64.6874 200.758 65.1516 200.813 65.6799H199.767C199.716 65.3057 199.622 64.9846 199.484 64.7168C199.346 64.4452 199.15 64.2361 198.896 64.0893C198.642 63.9426 198.31 63.8692 197.899 63.8692C197.547 63.8692 197.237 63.9371 196.968 64.0728C196.703 64.2086 196.48 64.4012 196.298 64.6507C196.12 64.9002 195.986 65.1993 195.895 65.5478C195.804 65.8964 195.759 66.2835 195.759 66.7091V67.5182C195.759 67.9108 195.799 68.2796 195.879 68.6245C195.962 68.9694 196.088 69.2721 196.255 69.5326C196.422 69.7931 196.634 69.9986 196.892 70.149C197.149 70.2958 197.454 70.3692 197.807 70.3692C198.253 70.3692 198.609 70.2976 198.874 70.1545C199.139 70.0114 199.339 69.806 199.473 69.5381C199.611 69.2703 199.709 68.9492 199.767 68.5749Z" fill="#C4141C"/>
<path d="M222.75 63.1097V71.1232H221.694L217.702 64.9424V71.1232H216.65V63.1097H217.702L221.71 69.3069V63.1097H222.75Z" fill="#C4141C"/>
<path d="M235.611 66.555V67.4191H231.32V66.555H235.611ZM231.483 63.1097V71.1232H230.432V63.1097H231.483ZM236.526 63.1097V71.1232H235.481V63.1097H236.526Z" fill="#C4141C"/>
<path d="M247.247 63.8196L244.622 71.1232H243.549L246.572 63.1097H247.263L247.247 63.8196ZM249.447 71.1232L246.817 63.8196L246.8 63.1097H247.492L250.526 71.1232H249.447ZM249.311 68.1566V69.0262H244.856V68.1566H249.311ZM246.572 60.9577L247.623 62.5758H246.757L245.352 60.9577H246.572Z" fill="#C4141C"/>
<path d="M270.061 70.2041L272.076 71.8167L271.368 72.4771L269.386 70.8865L270.061 70.2041ZM272.049 66.8633V67.3696C272.049 67.9714 271.974 68.5107 271.825 68.9877C271.677 69.4647 271.462 69.8702 271.183 70.2041C270.903 70.538 270.567 70.793 270.175 70.9691C269.787 71.1452 269.351 71.2333 268.868 71.2333C268.4 71.2333 267.97 71.1452 267.578 70.9691C267.189 70.793 266.851 70.538 266.565 70.2041C266.281 69.8702 266.062 69.4647 265.906 68.9877C265.749 68.5107 265.671 67.9714 265.671 67.3696V66.8633C265.671 66.2615 265.748 65.724 265.9 65.2506C266.056 64.7736 266.276 64.3682 266.559 64.0343C266.842 63.6967 267.178 63.4399 267.567 63.2638C267.959 63.0876 268.389 62.9996 268.857 62.9996C269.34 62.9996 269.778 63.0876 270.17 63.2638C270.562 63.4399 270.898 63.6967 271.177 64.0343C271.457 64.3682 271.671 64.7736 271.82 65.2506C271.973 65.724 272.049 66.2615 272.049 66.8633ZM271.009 67.3696V66.8522C271.009 66.3752 270.96 65.9533 270.862 65.5864C270.767 65.2194 270.627 64.9112 270.442 64.6617C270.257 64.4122 270.032 64.2233 269.767 64.0948C269.502 63.9664 269.199 63.9022 268.857 63.9022C268.534 63.9022 268.24 63.9664 267.975 64.0948C267.714 64.2233 267.489 64.4122 267.3 64.6617C267.111 64.9112 266.966 65.2194 266.864 65.5864C266.762 65.9533 266.712 66.3752 266.712 66.8522V67.3696C266.712 67.8503 266.762 68.2759 266.864 68.6465C266.966 69.0134 267.111 69.3235 267.3 69.5766C267.492 69.8261 267.721 70.0151 267.986 70.1435C268.251 70.2719 268.545 70.3362 268.868 70.3362C269.21 70.3362 269.513 70.2719 269.778 70.1435C270.043 70.0151 270.266 69.8261 270.448 69.5766C270.633 69.3235 270.773 69.0134 270.867 68.6465C270.961 68.2759 271.009 67.8503 271.009 67.3696Z" fill="#C4141C"/>
<path d="M284.028 63.1097H285.073V68.5309C285.073 69.1327 284.941 69.6335 284.676 70.0334C284.411 70.4334 284.058 70.7343 283.619 70.9361C283.183 71.1342 282.71 71.2333 282.198 71.2333C281.66 71.2333 281.174 71.1342 280.738 70.9361C280.306 70.7343 279.963 70.4334 279.709 70.0334C279.458 69.6335 279.333 69.1327 279.333 68.5309V63.1097H280.373V68.5309C280.373 68.9492 280.45 69.2941 280.602 69.5656C280.755 69.8371 280.967 70.039 281.239 70.171C281.515 70.3031 281.835 70.3692 282.198 70.3692C282.564 70.3692 282.884 70.3031 283.156 70.171C283.432 70.039 283.646 69.8371 283.799 69.5656C283.951 69.2941 284.028 68.9492 284.028 68.5309V63.1097Z" fill="#C4141C"/>
<path d="M295.358 63.8196L292.733 71.1232H291.66L294.683 63.1097H295.375L295.358 63.8196ZM297.559 71.1232L294.928 63.8196L294.912 63.1097H295.603L298.637 71.1232H297.559ZM297.422 68.1566V69.0262H292.968V68.1566H297.422ZM295.544 62.4877H294.819L294.814 61.6511C294.999 61.6401 295.15 61.6218 295.266 61.5961C295.382 61.5668 295.467 61.5246 295.522 61.4695C295.576 61.4108 295.603 61.3338 295.603 61.2384C295.603 61.1613 295.58 61.0971 295.533 61.0457C295.485 60.9907 295.42 60.9467 295.337 60.9136C295.253 60.8769 295.157 60.8513 295.048 60.8366C294.939 60.8219 294.823 60.8146 294.699 60.8146L294.738 60.2312C295.006 60.2312 295.242 60.255 295.446 60.3027C295.652 60.3504 295.825 60.4201 295.963 60.5119C296.105 60.6036 296.21 60.7137 296.279 60.8421C296.351 60.9668 296.388 61.1063 296.388 61.2604C296.388 61.5392 296.301 61.7429 296.126 61.8713C295.952 61.996 295.76 62.0731 295.549 62.1025L295.544 62.4877Z" fill="#C4141C"/>
<path d="M311.618 63.1097V71.1232H310.561L306.569 64.9424V71.1232H305.518V63.1097H306.569L310.578 69.3069V63.1097H311.618Z" fill="#C4141C"/>
<path d="M330.598 63.1097V71.1232H329.563V63.1097H330.598ZM333.147 63.1097V63.9793H327.02V63.1097H333.147Z" fill="#C4141C"/>
<path d="M340.142 63.1097H342.767C343.363 63.1097 343.866 63.2014 344.276 63.3848C344.69 63.5683 345.004 63.8398 345.218 64.1994C345.436 64.5553 345.545 64.9938 345.545 65.5148C345.545 65.8817 345.47 66.2175 345.322 66.522C345.176 66.8229 344.966 67.0797 344.69 67.2925C344.417 67.5017 344.091 67.6576 343.709 67.7604L343.415 67.876H340.948L340.937 67.0119H342.8C343.178 67.0119 343.492 66.9458 343.742 66.8137C343.993 66.678 344.181 66.4963 344.309 66.2688C344.436 66.0413 344.499 65.79 344.499 65.5148C344.499 65.2066 344.439 64.9369 344.319 64.7058C344.2 64.4746 344.011 64.2966 343.753 64.1719C343.499 64.0435 343.17 63.9793 342.767 63.9793H341.193V71.1232H340.142V63.1097ZM344.777 71.1232L342.849 67.4907L343.944 67.4852L345.899 71.0572V71.1232H344.777Z" fill="#C4141C"/>
<path d="M353.962 63.1097V71.1232H352.911V63.1097H353.962ZM352.807 72.4276C352.807 72.2625 352.856 72.1231 352.954 72.0093C353.056 71.8956 353.205 71.8387 353.401 71.8387C353.593 71.8387 353.74 71.8956 353.842 72.0093C353.947 72.1231 354 72.2625 354 72.4276C354 72.5854 353.947 72.7193 353.842 72.8294C353.74 72.9431 353.593 73 353.401 73C353.205 73 353.056 72.9431 352.954 72.8294C352.856 72.7193 352.807 72.5854 352.807 72.4276Z" fill="#C4141C"/>
</svg>
